<svg width="22" height="22" viewBox="0 0 22 22" fill="none" xmlns="http://www.w3.org/2000/svg">
  <path d="M11 2.75C12.5125 2.75 13.75 3.9875 13.75 5.5C13.75 7.0125 12.5125 8.25 11 8.25C9.4875 8.25 8.25 7.0125 8.25 5.5C8.25 3.9875 9.4875 2.75 11 2.75ZM11 16.25C14.7125 16.25 18.975 18.2738 19.25 19.25H2.75C3.06625 18.26 7.30125 16.25 11 16.25ZM11 0C7.96125 0 5.5 2.46125 5.5 5.5C5.5 8.53875 7.96125 11 11 11C14.0387 11 16.5 8.53875 16.5 5.5C16.5 2.46125 14.0387 0 11 0ZM11 13.5C7.32875 13.5 0 15.5925 0 19.25V22H22V19.25C22 15.5925 14.6713 13.5 11 13.5Z" fill="currentColor"/>
</svg>
