<svg width="21" height="20" viewBox="0 0 21 20" fill="none" xmlns="http://www.w3.org/2000/svg">
<path d="M0.21875 3.5C0.21875 2.53333 0.560417 1.70833 1.24375 1.025C1.92708 0.341666 2.75208 -7.63492e-07 3.71875 -7.21238e-07C4.68542 -6.78984e-07 5.51042 0.341666 6.19375 1.025C6.87708 1.70833 7.21875 2.53333 7.21875 3.5C7.21875 3.8 7.18125 4.09167 7.10625 4.375C7.03125 4.65833 6.92708 4.925 6.79375 5.175L10.6187 9L13.3687 9C13.5854 8.26667 13.9979 7.66667 14.6062 7.2C15.2146 6.73333 15.9187 6.5 16.7187 6.5C17.6854 6.5 18.5104 6.84167 19.1937 7.525C19.8771 8.20833 20.2187 9.03333 20.2187 10C20.2187 10.9667 19.8771 11.7917 19.1937 12.475C18.5104 13.1583 17.6854 13.5 16.7187 13.5C15.9187 13.5 15.2146 13.2667 14.6062 12.8C13.9979 12.3333 13.5854 11.7333 13.3687 11L10.6187 11L6.79375 14.85C6.92708 15.1 7.03125 15.3625 7.10625 15.6375C7.18125 15.9125 7.21875 16.2 7.21875 16.5C7.21875 17.4667 6.87708 18.2917 6.19375 18.975C5.51042 19.6583 4.68542 20 3.71875 20C2.75208 20 1.92708 19.6583 1.24375 18.975C0.560416 18.2917 0.218749 17.4667 0.218749 16.5C0.218749 15.5333 0.560417 14.7083 1.24375 14.025C1.92708 13.3417 2.75208 13 3.71875 13C4.01875 13 4.31042 13.0375 4.59375 13.1125C4.87708 13.1875 5.14375 13.2917 5.39375 13.425L8.81875 10L5.39375 6.575C5.14375 6.70833 4.87708 6.8125 4.59375 6.8875C4.31042 6.9625 4.01875 7 3.71875 7C2.75208 7 1.92708 6.65833 1.24375 5.975C0.560417 5.29167 0.21875 4.46667 0.21875 3.5ZM2.21875 16.5C2.21875 16.9167 2.36458 17.2708 2.65625 17.5625C2.94792 17.8542 3.30208 18 3.71875 18C4.13542 18 4.48958 17.8542 4.78125 17.5625C5.07292 17.2708 5.21875 16.9167 5.21875 16.5C5.21875 16.0833 5.07292 15.7292 4.78125 15.4375C4.48958 15.1458 4.13542 15 3.71875 15C3.30208 15 2.94792 15.1458 2.65625 15.4375C2.36458 15.7292 2.21875 16.0833 2.21875 16.5ZM15.2187 10C15.2187 10.4167 15.3646 10.7708 15.6562 11.0625C15.9479 11.3542 16.3021 11.5 16.7187 11.5C17.1354 11.5 17.4896 11.3542 17.7812 11.0625C18.0729 10.7708 18.2187 10.4167 18.2187 10C18.2187 9.58333 18.0729 9.22917 17.7812 8.9375C17.4896 8.64583 17.1354 8.5 16.7187 8.5C16.3021 8.5 15.9479 8.64583 15.6562 8.9375C15.3646 9.22917 15.2187 9.58333 15.2187 10ZM2.21875 3.5C2.21875 3.91667 2.36458 4.27083 2.65625 4.5625C2.94792 4.85417 3.30208 5 3.71875 5C4.13542 5 4.48958 4.85417 4.78125 4.5625C5.07292 4.27083 5.21875 3.91667 5.21875 3.5C5.21875 3.08333 5.07292 2.72917 4.78125 2.4375C4.48958 2.14583 4.13542 2 3.71875 2C3.30208 2 2.94792 2.14583 2.65625 2.4375C2.36458 2.72917 2.21875 3.08333 2.21875 3.5Z" fill="currentColor"/>
</svg>
